<?xml version="1.0" encoding="UTF-8"?>
<svg xmlns="http://www.w3.org/2000/svg" xmlns:xlink="http://www.w3.org/1999/xlink" width="170.478pt" height="170.478pt" viewBox="0 0 170.478 170.478" version="1.1">
<defs>
<clipPath id="clip1">
  <path d="M 37 5 L 170.476563 5 L 170.476563 165 L 37 165 Z M 37 5 "/>
</clipPath>
<clipPath id="clip2">
  <path d="M 24 14 L 170.476563 14 L 170.476563 170.476563 L 24 170.476563 Z M 24 14 "/>
</clipPath>
<clipPath id="clip3">
  <path d="M 14 24 L 170.476563 24 L 170.476563 170.476563 L 14 170.476563 Z M 14 24 "/>
</clipPath>
<clipPath id="clip4">
  <path d="M 5 37 L 165 37 L 165 170.476563 L 5 170.476563 Z M 5 37 "/>
</clipPath>
<clipPath id="clip5">
  <path d="M 0 24 L 157 24 L 157 170.476563 L 0 170.476563 Z M 0 24 "/>
</clipPath>
<clipPath id="clip6">
  <path d="M 0 14 L 146 14 L 146 170.476563 L 0 170.476563 Z M 0 14 "/>
</clipPath>
<clipPath id="clip7">
  <path d="M 14 0 L 170.476563 0 L 170.476563 146 L 14 146 Z M 14 0 "/>
</clipPath>
<clipPath id="clip8">
  <path d="M 24 0 L 170.476563 0 L 170.476563 157 L 24 157 Z M 24 0 "/>
</clipPath>
<clipPath id="clip9">
  <path d="M 37 5 L 170.476563 5 L 170.476563 165 L 37 165 Z M 37 5 "/>
</clipPath>
<clipPath id="clip10">
  <path d="M 24 14 L 170.476563 14 L 170.476563 170.476563 L 24 170.476563 Z M 24 14 "/>
</clipPath>
<clipPath id="clip11">
  <path d="M 14 24 L 170.476563 24 L 170.476563 170.476563 L 14 170.476563 Z M 14 24 "/>
</clipPath>
<clipPath id="clip12">
  <path d="M 5 37 L 165 37 L 165 170.476563 L 5 170.476563 Z M 5 37 "/>
</clipPath>
<clipPath id="clip13">
  <path d="M 0 24 L 157 24 L 157 170.476563 L 0 170.476563 Z M 0 24 "/>
</clipPath>
<clipPath id="clip14">
  <path d="M 0 14 L 146 14 L 146 170.476563 L 0 170.476563 Z M 0 14 "/>
</clipPath>
<clipPath id="clip15">
  <path d="M 14 0 L 170.476563 0 L 170.476563 146 L 14 146 Z M 14 0 "/>
</clipPath>
<clipPath id="clip16">
  <path d="M 24 0 L 170.476563 0 L 170.476563 157 L 24 157 Z M 24 0 "/>
</clipPath>
<clipPath id="clip17">
  <path d="M 37 5 L 170.476563 5 L 170.476563 165 L 37 165 Z M 37 5 "/>
</clipPath>
<clipPath id="clip18">
  <path d="M 24 14 L 170.476563 14 L 170.476563 170.476563 L 24 170.476563 Z M 24 14 "/>
</clipPath>
<clipPath id="clip19">
  <path d="M 14 24 L 170.476563 24 L 170.476563 170.476563 L 14 170.476563 Z M 14 24 "/>
</clipPath>
<clipPath id="clip20">
  <path d="M 5 37 L 165 37 L 165 170.476563 L 5 170.476563 Z M 5 37 "/>
</clipPath>
<clipPath id="clip21">
  <path d="M 0 24 L 157 24 L 157 170.476563 L 0 170.476563 Z M 0 24 "/>
</clipPath>
<clipPath id="clip22">
  <path d="M 0 14 L 146 14 L 146 170.476563 L 0 170.476563 Z M 0 14 "/>
</clipPath>
<clipPath id="clip23">
  <path d="M 14 0 L 170.476563 0 L 170.476563 146 L 14 146 Z M 14 0 "/>
</clipPath>
<clipPath id="clip24">
  <path d="M 24 0 L 170.476563 0 L 170.476563 157 L 24 157 Z M 24 0 "/>
</clipPath>
<clipPath id="clip25">
  <path d="M 0 0 L 170.476563 0 L 170.476563 170.476563 L 0 170.476563 Z M 0 0 "/>
</clipPath>
</defs>
<g id="surface1">
<g clip-path="url(#clip1)" clip-rule="nonzero">
<path style="fill:none;stroke-width:0.3985;stroke-linecap:butt;stroke-linejoin:miter;stroke:rgb(0%,0%,0%);stroke-opacity:1;stroke-miterlimit:10;" d="M 85.04225 0.00071875 L -42.52025 73.649156 L -42.52025 -73.647719 Z M 85.04225 0.00071875 " transform="matrix(1,0,0,-1,85.239,85.239)"/>
</g>
<path style="fill:none;stroke-width:0.3985;stroke-linecap:butt;stroke-linejoin:miter;stroke:rgb(0%,0%,0%);stroke-opacity:1;stroke-miterlimit:10;" d="M 42.514906 0.742906 L -21.899156 36.446031 L -20.614 -37.190687 Z M 42.514906 0.742906 " transform="matrix(1,0,0,-1,85.239,85.239)"/>
<path style="fill:none;stroke-width:0.3985;stroke-linecap:butt;stroke-linejoin:miter;stroke:rgb(0%,0%,0%);stroke-opacity:1;stroke-miterlimit:10;" d="M 21.245375 0.742906 L -11.266344 18.028063 L -9.981188 -18.772719 Z M 21.245375 0.742906 " transform="matrix(1,0,0,-1,85.239,85.239)"/>
<g clip-path="url(#clip2)" clip-rule="nonzero">
<path style="fill:none;stroke-width:0.3985;stroke-linecap:butt;stroke-linejoin:miter;stroke:rgb(0%,0%,0%);stroke-opacity:1;stroke-miterlimit:10;" d="M 83.749281 14.766344 L -54.664781 65.14525 L -29.086656 -79.913344 Z M 83.749281 14.766344 " transform="matrix(1,0,0,-1,85.239,85.239)"/>
</g>
<path style="fill:none;stroke-width:0.3985;stroke-linecap:butt;stroke-linejoin:miter;stroke:rgb(0%,0%,0%);stroke-opacity:1;stroke-miterlimit:10;" d="M 41.737562 8.114 L -27.89525 32.090563 L -13.844469 -40.202406 Z M 41.737562 8.114 " transform="matrix(1,0,0,-1,85.239,85.239)"/>
<path style="fill:none;stroke-width:0.3985;stroke-linecap:butt;stroke-linejoin:miter;stroke:rgb(0%,0%,0%);stroke-opacity:1;stroke-miterlimit:10;" d="M 20.796156 4.418688 L -14.227281 15.797594 L -6.571031 -20.218031 Z M 20.796156 4.418688 " transform="matrix(1,0,0,-1,85.239,85.239)"/>
<g clip-path="url(#clip3)" clip-rule="nonzero">
<path style="fill:none;stroke-width:0.3985;stroke-linecap:butt;stroke-linejoin:miter;stroke:rgb(0%,0%,0%);stroke-opacity:1;stroke-miterlimit:10;" d="M 79.913344 29.086656 L -65.14525 54.664781 L -14.766344 -83.749281 Z M 79.913344 29.086656 " transform="matrix(1,0,0,-1,85.239,85.239)"/>
</g>
<path style="fill:none;stroke-width:0.3985;stroke-linecap:butt;stroke-linejoin:miter;stroke:rgb(0%,0%,0%);stroke-opacity:1;stroke-miterlimit:10;" d="M 39.694594 15.239 L -33.043688 26.758531 L -6.653063 -41.995375 Z M 39.694594 15.239 " transform="matrix(1,0,0,-1,85.239,85.239)"/>
<path style="fill:none;stroke-width:0.3985;stroke-linecap:butt;stroke-linejoin:miter;stroke:rgb(0%,0%,0%);stroke-opacity:1;stroke-miterlimit:10;" d="M 19.710219 7.965563 L -16.754625 13.090563 L -2.95775 -21.053969 Z M 19.710219 7.965563 " transform="matrix(1,0,0,-1,85.239,85.239)"/>
<g clip-path="url(#clip4)" clip-rule="nonzero">
<path style="fill:none;stroke-width:0.3985;stroke-linecap:butt;stroke-linejoin:miter;stroke:rgb(0%,0%,0%);stroke-opacity:1;stroke-miterlimit:10;" d="M 73.647719 42.52025 L -73.649156 42.52025 L -0.00071875 -85.04225 Z M 73.647719 42.52025 " transform="matrix(1,0,0,-1,85.239,85.239)"/>
</g>
<path style="fill:none;stroke-width:0.3985;stroke-linecap:butt;stroke-linejoin:miter;stroke:rgb(0%,0%,0%);stroke-opacity:1;stroke-miterlimit:10;" d="M 36.4485 21.899156 L -37.188219 20.614 L 0.741469 -42.514906 Z M 36.4485 21.899156 " transform="matrix(1,0,0,-1,85.239,85.239)"/>
<path style="fill:none;stroke-width:0.3985;stroke-linecap:butt;stroke-linejoin:miter;stroke:rgb(0%,0%,0%);stroke-opacity:1;stroke-miterlimit:10;" d="M 18.030531 11.266344 L -18.77025 9.981188 L 0.741469 -21.245375 Z M 18.030531 11.266344 " transform="matrix(1,0,0,-1,85.239,85.239)"/>
<g clip-path="url(#clip5)" clip-rule="nonzero">
<path style="fill:none;stroke-width:0.3985;stroke-linecap:butt;stroke-linejoin:miter;stroke:rgb(0%,0%,0%);stroke-opacity:1;stroke-miterlimit:10;" d="M 65.143812 54.664781 L -79.910875 29.086656 L 14.768812 -83.749281 Z M 65.143812 54.664781 " transform="matrix(1,0,0,-1,85.239,85.239)"/>
</g>
<path style="fill:none;stroke-width:0.3985;stroke-linecap:butt;stroke-linejoin:miter;stroke:rgb(0%,0%,0%);stroke-opacity:1;stroke-miterlimit:10;" d="M 32.089125 27.89525 L -40.203844 13.844469 L 8.112562 -41.737562 Z M 32.089125 27.89525 " transform="matrix(1,0,0,-1,85.239,85.239)"/>
<path style="fill:none;stroke-width:0.3985;stroke-linecap:butt;stroke-linejoin:miter;stroke:rgb(0%,0%,0%);stroke-opacity:1;stroke-miterlimit:10;" d="M 15.800062 14.227281 L -20.219469 6.571031 L 4.421156 -20.796156 Z M 15.800062 14.227281 " transform="matrix(1,0,0,-1,85.239,85.239)"/>
<g clip-path="url(#clip6)" clip-rule="nonzero">
<path style="fill:none;stroke-width:0.3985;stroke-linecap:butt;stroke-linejoin:miter;stroke:rgb(0%,0%,0%);stroke-opacity:1;stroke-miterlimit:10;" d="M 54.663344 65.14525 L -83.746813 14.766344 L 29.085219 -79.913344 Z M 54.663344 65.14525 " transform="matrix(1,0,0,-1,85.239,85.239)"/>
</g>
<path style="fill:none;stroke-width:0.3985;stroke-linecap:butt;stroke-linejoin:miter;stroke:rgb(0%,0%,0%);stroke-opacity:1;stroke-miterlimit:10;" d="M 26.757094 33.043688 L -41.996813 6.653063 L 15.237562 -39.694594 Z M 26.757094 33.043688 " transform="matrix(1,0,0,-1,85.239,85.239)"/>
<path style="fill:none;stroke-width:0.3985;stroke-linecap:butt;stroke-linejoin:miter;stroke:rgb(0%,0%,0%);stroke-opacity:1;stroke-miterlimit:10;" d="M 13.089125 16.754625 L -21.0515 2.95775 L 7.964125 -19.710219 Z M 13.089125 16.754625 " transform="matrix(1,0,0,-1,85.239,85.239)"/>
<path style="fill:none;stroke-width:0.3985;stroke-linecap:butt;stroke-linejoin:miter;stroke:rgb(0%,0%,0%);stroke-opacity:1;stroke-miterlimit:10;" d="M 42.518812 73.649156 L -85.039781 0.00071875 L 42.518812 -73.647719 Z M 42.518812 73.649156 " transform="matrix(1,0,0,-1,85.239,85.239)"/>
<path style="fill:none;stroke-width:0.3985;stroke-linecap:butt;stroke-linejoin:miter;stroke:rgb(0%,0%,0%);stroke-opacity:1;stroke-miterlimit:10;" d="M 20.616469 37.188219 L -42.512438 -0.741469 L 21.897719 -36.4485 Z M 20.616469 37.188219 " transform="matrix(1,0,0,-1,85.239,85.239)"/>
<path style="fill:none;stroke-width:0.3985;stroke-linecap:butt;stroke-linejoin:miter;stroke:rgb(0%,0%,0%);stroke-opacity:1;stroke-miterlimit:10;" d="M 9.97975 18.77025 L -21.246813 -0.741469 L 11.264906 -18.030531 Z M 9.97975 18.77025 " transform="matrix(1,0,0,-1,85.239,85.239)"/>
<path style="fill:none;stroke-width:0.3985;stroke-linecap:butt;stroke-linejoin:miter;stroke:rgb(0%,0%,0%);stroke-opacity:1;stroke-miterlimit:10;" d="M 29.085219 79.910875 L -83.750719 -14.764906 L 54.663344 -65.143812 Z M 29.085219 79.910875 " transform="matrix(1,0,0,-1,85.239,85.239)"/>
<path style="fill:none;stroke-width:0.3985;stroke-linecap:butt;stroke-linejoin:miter;stroke:rgb(0%,0%,0%);stroke-opacity:1;stroke-miterlimit:10;" d="M 13.843031 40.203844 L -41.739 -8.112562 L 27.897719 -32.089125 Z M 13.843031 40.203844 " transform="matrix(1,0,0,-1,85.239,85.239)"/>
<path style="fill:none;stroke-width:0.3985;stroke-linecap:butt;stroke-linejoin:miter;stroke:rgb(0%,0%,0%);stroke-opacity:1;stroke-miterlimit:10;" d="M 6.569594 20.219469 L -20.797594 -4.421156 L 14.225844 -15.800062 Z M 6.569594 20.219469 " transform="matrix(1,0,0,-1,85.239,85.239)"/>
<path style="fill:none;stroke-width:0.3985;stroke-linecap:butt;stroke-linejoin:miter;stroke:rgb(0%,0%,0%);stroke-opacity:1;stroke-miterlimit:10;" d="M 14.764906 83.750719 L -79.910875 -29.085219 L 65.147719 -54.663344 Z M 14.764906 83.750719 " transform="matrix(1,0,0,-1,85.239,85.239)"/>
<path style="fill:none;stroke-width:0.3985;stroke-linecap:butt;stroke-linejoin:miter;stroke:rgb(0%,0%,0%);stroke-opacity:1;stroke-miterlimit:10;" d="M 6.651625 41.996813 L -39.696031 -15.237562 L 33.046156 -26.757094 Z M 6.651625 41.996813 " transform="matrix(1,0,0,-1,85.239,85.239)"/>
<path style="fill:none;stroke-width:0.3985;stroke-linecap:butt;stroke-linejoin:miter;stroke:rgb(0%,0%,0%);stroke-opacity:1;stroke-miterlimit:10;" d="M 2.960219 21.0515 L -19.711656 -7.964125 L 16.753187 -13.089125 Z M 2.960219 21.0515 " transform="matrix(1,0,0,-1,85.239,85.239)"/>
<path style="fill:none;stroke-width:0.3985;stroke-linecap:butt;stroke-linejoin:miter;stroke:rgb(0%,0%,0%);stroke-opacity:1;stroke-miterlimit:10;" d="M -0.00071875 85.039781 L -73.649156 -42.518812 L 73.647719 -42.518812 Z M -0.00071875 85.039781 " transform="matrix(1,0,0,-1,85.239,85.239)"/>
<path style="fill:none;stroke-width:0.3985;stroke-linecap:butt;stroke-linejoin:miter;stroke:rgb(0%,0%,0%);stroke-opacity:1;stroke-miterlimit:10;" d="M -0.742906 42.512438 L -36.446031 -21.897719 L 37.190687 -20.612562 Z M -0.742906 42.512438 " transform="matrix(1,0,0,-1,85.239,85.239)"/>
<path style="fill:none;stroke-width:0.3985;stroke-linecap:butt;stroke-linejoin:miter;stroke:rgb(0%,0%,0%);stroke-opacity:1;stroke-miterlimit:10;" d="M -0.742906 21.246813 L -18.028063 -11.264906 L 18.772719 -9.97975 Z M -0.742906 21.246813 " transform="matrix(1,0,0,-1,85.239,85.239)"/>
<g clip-path="url(#clip7)" clip-rule="nonzero">
<path style="fill:none;stroke-width:0.3985;stroke-linecap:butt;stroke-linejoin:miter;stroke:rgb(0%,0%,0%);stroke-opacity:1;stroke-miterlimit:10;" d="M -14.766344 83.750719 L -65.14525 -54.663344 L 79.913344 -29.085219 Z M -14.766344 83.750719 " transform="matrix(1,0,0,-1,85.239,85.239)"/>
</g>
<path style="fill:none;stroke-width:0.3985;stroke-linecap:butt;stroke-linejoin:miter;stroke:rgb(0%,0%,0%);stroke-opacity:1;stroke-miterlimit:10;" d="M -8.114 41.739 L -32.090563 -27.897719 L 40.202406 -13.843031 Z M -8.114 41.739 " transform="matrix(1,0,0,-1,85.239,85.239)"/>
<path style="fill:none;stroke-width:0.3985;stroke-linecap:butt;stroke-linejoin:miter;stroke:rgb(0%,0%,0%);stroke-opacity:1;stroke-miterlimit:10;" d="M -4.418688 20.793688 L -15.797594 -14.225844 L 20.218031 -6.569594 Z M -4.418688 20.793688 " transform="matrix(1,0,0,-1,85.239,85.239)"/>
<g clip-path="url(#clip8)" clip-rule="nonzero">
<path style="fill:none;stroke-width:0.3985;stroke-linecap:butt;stroke-linejoin:miter;stroke:rgb(0%,0%,0%);stroke-opacity:1;stroke-miterlimit:10;" d="M -29.086656 79.910875 L -54.664781 -65.143812 L 83.749281 -14.764906 Z M -29.086656 79.910875 " transform="matrix(1,0,0,-1,85.239,85.239)"/>
</g>
<path style="fill:none;stroke-width:0.3985;stroke-linecap:butt;stroke-linejoin:miter;stroke:rgb(0%,0%,0%);stroke-opacity:1;stroke-miterlimit:10;" d="M -15.239 39.696031 L -26.758531 -33.046156 L 41.995375 -6.651625 Z M -15.239 39.696031 " transform="matrix(1,0,0,-1,85.239,85.239)"/>
<path style="fill:none;stroke-width:0.3985;stroke-linecap:butt;stroke-linejoin:miter;stroke:rgb(0%,0%,0%);stroke-opacity:1;stroke-miterlimit:10;" d="M -7.965563 19.711656 L -13.090563 -16.753187 L 21.053969 -2.960219 Z M -7.965563 19.711656 " transform="matrix(1,0,0,-1,85.239,85.239)"/>
<g clip-path="url(#clip9)" clip-rule="nonzero">
<path style="fill:none;stroke-width:0.3985;stroke-linecap:butt;stroke-linejoin:miter;stroke:rgb(0%,0%,0%);stroke-opacity:1;stroke-miterlimit:10;" d="M -42.52025 73.649156 L -42.52025 -73.647719 L 85.04225 0.00071875 Z M -42.52025 73.649156 " transform="matrix(1,0,0,-1,85.239,85.239)"/>
</g>
<path style="fill:none;stroke-width:0.3985;stroke-linecap:butt;stroke-linejoin:miter;stroke:rgb(0%,0%,0%);stroke-opacity:1;stroke-miterlimit:10;" d="M -21.899156 36.446031 L -20.614 -37.190687 L 42.514906 0.742906 Z M -21.899156 36.446031 " transform="matrix(1,0,0,-1,85.239,85.239)"/>
<path style="fill:none;stroke-width:0.3985;stroke-linecap:butt;stroke-linejoin:miter;stroke:rgb(0%,0%,0%);stroke-opacity:1;stroke-miterlimit:10;" d="M -11.266344 18.028063 L -9.981188 -18.772719 L 21.245375 0.742906 Z M -11.266344 18.028063 " transform="matrix(1,0,0,-1,85.239,85.239)"/>
<g clip-path="url(#clip10)" clip-rule="nonzero">
<path style="fill:none;stroke-width:0.3985;stroke-linecap:butt;stroke-linejoin:miter;stroke:rgb(0%,0%,0%);stroke-opacity:1;stroke-miterlimit:10;" d="M -54.664781 65.14525 L -29.086656 -79.913344 L 83.749281 14.766344 Z M -54.664781 65.14525 " transform="matrix(1,0,0,-1,85.239,85.239)"/>
</g>
<path style="fill:none;stroke-width:0.3985;stroke-linecap:butt;stroke-linejoin:miter;stroke:rgb(0%,0%,0%);stroke-opacity:1;stroke-miterlimit:10;" d="M -27.89525 32.090563 L -13.844469 -40.202406 L 41.737562 8.114 Z M -27.89525 32.090563 " transform="matrix(1,0,0,-1,85.239,85.239)"/>
<path style="fill:none;stroke-width:0.3985;stroke-linecap:butt;stroke-linejoin:miter;stroke:rgb(0%,0%,0%);stroke-opacity:1;stroke-miterlimit:10;" d="M -14.227281 15.797594 L -6.571031 -20.218031 L 20.796156 4.418688 Z M -14.227281 15.797594 " transform="matrix(1,0,0,-1,85.239,85.239)"/>
<g clip-path="url(#clip11)" clip-rule="nonzero">
<path style="fill:none;stroke-width:0.3985;stroke-linecap:butt;stroke-linejoin:miter;stroke:rgb(0%,0%,0%);stroke-opacity:1;stroke-miterlimit:10;" d="M -65.14525 54.664781 L -14.766344 -83.749281 L 79.913344 29.086656 Z M -65.14525 54.664781 " transform="matrix(1,0,0,-1,85.239,85.239)"/>
</g>
<path style="fill:none;stroke-width:0.3985;stroke-linecap:butt;stroke-linejoin:miter;stroke:rgb(0%,0%,0%);stroke-opacity:1;stroke-miterlimit:10;" d="M -33.043688 26.758531 L -6.653063 -41.995375 L 39.694594 15.239 Z M -33.043688 26.758531 " transform="matrix(1,0,0,-1,85.239,85.239)"/>
<path style="fill:none;stroke-width:0.3985;stroke-linecap:butt;stroke-linejoin:miter;stroke:rgb(0%,0%,0%);stroke-opacity:1;stroke-miterlimit:10;" d="M -16.754625 13.090563 L -2.95775 -21.053969 L 19.710219 7.965563 Z M -16.754625 13.090563 " transform="matrix(1,0,0,-1,85.239,85.239)"/>
<g clip-path="url(#clip12)" clip-rule="nonzero">
<path style="fill:none;stroke-width:0.3985;stroke-linecap:butt;stroke-linejoin:miter;stroke:rgb(0%,0%,0%);stroke-opacity:1;stroke-miterlimit:10;" d="M -73.649156 42.52025 L -0.00071875 -85.04225 L 73.647719 42.52025 Z M -73.649156 42.52025 " transform="matrix(1,0,0,-1,85.239,85.239)"/>
</g>
<path style="fill:none;stroke-width:0.3985;stroke-linecap:butt;stroke-linejoin:miter;stroke:rgb(0%,0%,0%);stroke-opacity:1;stroke-miterlimit:10;" d="M -37.188219 20.614 L 0.741469 -42.514906 L 36.4485 21.899156 Z M -37.188219 20.614 " transform="matrix(1,0,0,-1,85.239,85.239)"/>
<path style="fill:none;stroke-width:0.3985;stroke-linecap:butt;stroke-linejoin:miter;stroke:rgb(0%,0%,0%);stroke-opacity:1;stroke-miterlimit:10;" d="M -18.77025 9.981188 L 0.741469 -21.245375 L 18.030531 11.266344 Z M -18.77025 9.981188 " transform="matrix(1,0,0,-1,85.239,85.239)"/>
<g clip-path="url(#clip13)" clip-rule="nonzero">
<path style="fill:none;stroke-width:0.3985;stroke-linecap:butt;stroke-linejoin:miter;stroke:rgb(0%,0%,0%);stroke-opacity:1;stroke-miterlimit:10;" d="M -79.910875 29.086656 L 14.764906 -83.749281 L 65.143812 54.664781 Z M -79.910875 29.086656 " transform="matrix(1,0,0,-1,85.239,85.239)"/>
</g>
<path style="fill:none;stroke-width:0.3985;stroke-linecap:butt;stroke-linejoin:miter;stroke:rgb(0%,0%,0%);stroke-opacity:1;stroke-miterlimit:10;" d="M -40.203844 13.844469 L 8.112562 -41.741469 L 32.089125 27.89525 Z M -40.203844 13.844469 " transform="matrix(1,0,0,-1,85.239,85.239)"/>
<path style="fill:none;stroke-width:0.3985;stroke-linecap:butt;stroke-linejoin:miter;stroke:rgb(0%,0%,0%);stroke-opacity:1;stroke-miterlimit:10;" d="M -20.219469 6.571031 L 4.421156 -20.796156 L 15.800062 14.227281 Z M -20.219469 6.571031 " transform="matrix(1,0,0,-1,85.239,85.239)"/>
<g clip-path="url(#clip14)" clip-rule="nonzero">
<path style="fill:none;stroke-width:0.3985;stroke-linecap:butt;stroke-linejoin:miter;stroke:rgb(0%,0%,0%);stroke-opacity:1;stroke-miterlimit:10;" d="M -83.750719 14.766344 L 29.085219 -79.913344 L 54.663344 65.14525 Z M -83.750719 14.766344 " transform="matrix(1,0,0,-1,85.239,85.239)"/>
</g>
<path style="fill:none;stroke-width:0.3985;stroke-linecap:butt;stroke-linejoin:miter;stroke:rgb(0%,0%,0%);stroke-opacity:1;stroke-miterlimit:10;" d="M -41.996813 6.653063 L 15.237562 -39.694594 L 26.757094 33.043688 Z M -41.996813 6.653063 " transform="matrix(1,0,0,-1,85.239,85.239)"/>
<path style="fill:none;stroke-width:0.3985;stroke-linecap:butt;stroke-linejoin:miter;stroke:rgb(0%,0%,0%);stroke-opacity:1;stroke-miterlimit:10;" d="M -21.0515 2.95775 L 7.964125 -19.710219 L 13.089125 16.754625 Z M -21.0515 2.95775 " transform="matrix(1,0,0,-1,85.239,85.239)"/>
<path style="fill:none;stroke-width:0.3985;stroke-linecap:butt;stroke-linejoin:miter;stroke:rgb(0%,0%,0%);stroke-opacity:1;stroke-miterlimit:10;" d="M -85.039781 0.00071875 L 42.518812 -73.647719 L 42.518812 73.649156 Z M -85.039781 0.00071875 " transform="matrix(1,0,0,-1,85.239,85.239)"/>
<path style="fill:none;stroke-width:0.3985;stroke-linecap:butt;stroke-linejoin:miter;stroke:rgb(0%,0%,0%);stroke-opacity:1;stroke-miterlimit:10;" d="M -42.512438 -0.741469 L 21.897719 -36.4485 L 20.612562 37.188219 Z M -42.512438 -0.741469 " transform="matrix(1,0,0,-1,85.239,85.239)"/>
<path style="fill:none;stroke-width:0.3985;stroke-linecap:butt;stroke-linejoin:miter;stroke:rgb(0%,0%,0%);stroke-opacity:1;stroke-miterlimit:10;" d="M -21.246813 -0.741469 L 11.264906 -18.030531 L 9.97975 18.77025 Z M -21.246813 -0.741469 " transform="matrix(1,0,0,-1,85.239,85.239)"/>
<path style="fill:none;stroke-width:0.3985;stroke-linecap:butt;stroke-linejoin:miter;stroke:rgb(0%,0%,0%);stroke-opacity:1;stroke-miterlimit:10;" d="M -83.750719 -14.764906 L 54.663344 -65.147719 L 29.085219 79.910875 Z M -83.750719 -14.764906 " transform="matrix(1,0,0,-1,85.239,85.239)"/>
<path style="fill:none;stroke-width:0.3985;stroke-linecap:butt;stroke-linejoin:miter;stroke:rgb(0%,0%,0%);stroke-opacity:1;stroke-miterlimit:10;" d="M -41.739 -8.112562 L 27.897719 -32.089125 L 13.843031 40.203844 Z M -41.739 -8.112562 " transform="matrix(1,0,0,-1,85.239,85.239)"/>
<path style="fill:none;stroke-width:0.3985;stroke-linecap:butt;stroke-linejoin:miter;stroke:rgb(0%,0%,0%);stroke-opacity:1;stroke-miterlimit:10;" d="M -20.793688 -4.421156 L 14.225844 -15.800062 L 6.569594 20.219469 Z M -20.793688 -4.421156 " transform="matrix(1,0,0,-1,85.239,85.239)"/>
<path style="fill:none;stroke-width:0.3985;stroke-linecap:butt;stroke-linejoin:miter;stroke:rgb(0%,0%,0%);stroke-opacity:1;stroke-miterlimit:10;" d="M -79.910875 -29.085219 L 65.143812 -54.663344 L 14.764906 83.750719 Z M -79.910875 -29.085219 " transform="matrix(1,0,0,-1,85.239,85.239)"/>
<path style="fill:none;stroke-width:0.3985;stroke-linecap:butt;stroke-linejoin:miter;stroke:rgb(0%,0%,0%);stroke-opacity:1;stroke-miterlimit:10;" d="M -39.696031 -15.237562 L 33.046156 -26.757094 L 6.651625 41.996813 Z M -39.696031 -15.237562 " transform="matrix(1,0,0,-1,85.239,85.239)"/>
<path style="fill:none;stroke-width:0.3985;stroke-linecap:butt;stroke-linejoin:miter;stroke:rgb(0%,0%,0%);stroke-opacity:1;stroke-miterlimit:10;" d="M -19.711656 -7.964125 L 16.753187 -13.089125 L 2.960219 21.0515 Z M -19.711656 -7.964125 " transform="matrix(1,0,0,-1,85.239,85.239)"/>
<path style="fill:none;stroke-width:0.3985;stroke-linecap:butt;stroke-linejoin:miter;stroke:rgb(0%,0%,0%);stroke-opacity:1;stroke-miterlimit:10;" d="M -73.649156 -42.518812 L 73.647719 -42.518812 L -0.00071875 85.039781 Z M -73.649156 -42.518812 " transform="matrix(1,0,0,-1,85.239,85.239)"/>
<path style="fill:none;stroke-width:0.3985;stroke-linecap:butt;stroke-linejoin:miter;stroke:rgb(0%,0%,0%);stroke-opacity:1;stroke-miterlimit:10;" d="M -36.446031 -21.901625 L 37.190687 -20.612562 L -0.742906 42.512438 Z M -36.446031 -21.901625 " transform="matrix(1,0,0,-1,85.239,85.239)"/>
<path style="fill:none;stroke-width:0.3985;stroke-linecap:butt;stroke-linejoin:miter;stroke:rgb(0%,0%,0%);stroke-opacity:1;stroke-miterlimit:10;" d="M -18.028063 -11.264906 L 18.772719 -9.97975 L -0.742906 21.246813 Z M -18.028063 -11.264906 " transform="matrix(1,0,0,-1,85.239,85.239)"/>
<g clip-path="url(#clip15)" clip-rule="nonzero">
<path style="fill:none;stroke-width:0.3985;stroke-linecap:butt;stroke-linejoin:miter;stroke:rgb(0%,0%,0%);stroke-opacity:1;stroke-miterlimit:10;" d="M -65.14525 -54.663344 L 79.913344 -29.085219 L -14.766344 83.746813 Z M -65.14525 -54.663344 " transform="matrix(1,0,0,-1,85.239,85.239)"/>
</g>
<path style="fill:none;stroke-width:0.3985;stroke-linecap:butt;stroke-linejoin:miter;stroke:rgb(0%,0%,0%);stroke-opacity:1;stroke-miterlimit:10;" d="M -32.090563 -27.897719 L 40.202406 -13.843031 L -8.114 41.739 Z M -32.090563 -27.897719 " transform="matrix(1,0,0,-1,85.239,85.239)"/>
<path style="fill:none;stroke-width:0.3985;stroke-linecap:butt;stroke-linejoin:miter;stroke:rgb(0%,0%,0%);stroke-opacity:1;stroke-miterlimit:10;" d="M -15.797594 -14.225844 L 20.218031 -6.569594 L -4.418688 20.793688 Z M -15.797594 -14.225844 " transform="matrix(1,0,0,-1,85.239,85.239)"/>
<g clip-path="url(#clip16)" clip-rule="nonzero">
<path style="fill:none;stroke-width:0.3985;stroke-linecap:butt;stroke-linejoin:miter;stroke:rgb(0%,0%,0%);stroke-opacity:1;stroke-miterlimit:10;" d="M -54.664781 -65.143812 L 83.749281 -14.768812 L -29.086656 79.910875 Z M -54.664781 -65.143812 " transform="matrix(1,0,0,-1,85.239,85.239)"/>
</g>
<path style="fill:none;stroke-width:0.3985;stroke-linecap:butt;stroke-linejoin:miter;stroke:rgb(0%,0%,0%);stroke-opacity:1;stroke-miterlimit:10;" d="M -26.758531 -33.046156 L 41.995375 -6.651625 L -15.239 39.696031 Z M -26.758531 -33.046156 " transform="matrix(1,0,0,-1,85.239,85.239)"/>
<path style="fill:none;stroke-width:0.3985;stroke-linecap:butt;stroke-linejoin:miter;stroke:rgb(0%,0%,0%);stroke-opacity:1;stroke-miterlimit:10;" d="M -13.090563 -16.753187 L 21.053969 -2.960219 L -7.965563 19.711656 Z M -13.090563 -16.753187 " transform="matrix(1,0,0,-1,85.239,85.239)"/>
<g clip-path="url(#clip17)" clip-rule="nonzero">
<path style="fill:none;stroke-width:0.3985;stroke-linecap:butt;stroke-linejoin:miter;stroke:rgb(0%,0%,0%);stroke-opacity:1;stroke-miterlimit:10;" d="M -42.52025 -73.647719 L 85.04225 0.00071875 L -42.52025 73.649156 Z M -42.52025 -73.647719 " transform="matrix(1,0,0,-1,85.239,85.239)"/>
</g>
<path style="fill:none;stroke-width:0.3985;stroke-linecap:butt;stroke-linejoin:miter;stroke:rgb(0%,0%,0%);stroke-opacity:1;stroke-miterlimit:10;" d="M -20.614 -37.190687 L 42.514906 0.742906 L -21.899156 36.446031 Z M -20.614 -37.190687 " transform="matrix(1,0,0,-1,85.239,85.239)"/>
<path style="fill:none;stroke-width:0.3985;stroke-linecap:butt;stroke-linejoin:miter;stroke:rgb(0%,0%,0%);stroke-opacity:1;stroke-miterlimit:10;" d="M -9.981188 -18.772719 L 21.245375 0.742906 L -11.266344 18.028063 Z M -9.981188 -18.772719 " transform="matrix(1,0,0,-1,85.239,85.239)"/>
<g clip-path="url(#clip18)" clip-rule="nonzero">
<path style="fill:none;stroke-width:0.3985;stroke-linecap:butt;stroke-linejoin:miter;stroke:rgb(0%,0%,0%);stroke-opacity:1;stroke-miterlimit:10;" d="M -29.086656 -79.913344 L 83.749281 14.766344 L -54.664781 65.14525 Z M -29.086656 -79.913344 " transform="matrix(1,0,0,-1,85.239,85.239)"/>
</g>
<path style="fill:none;stroke-width:0.3985;stroke-linecap:butt;stroke-linejoin:miter;stroke:rgb(0%,0%,0%);stroke-opacity:1;stroke-miterlimit:10;" d="M -13.844469 -40.202406 L 41.741469 8.114 L -27.89525 32.090563 Z M -13.844469 -40.202406 " transform="matrix(1,0,0,-1,85.239,85.239)"/>
<path style="fill:none;stroke-width:0.3985;stroke-linecap:butt;stroke-linejoin:miter;stroke:rgb(0%,0%,0%);stroke-opacity:1;stroke-miterlimit:10;" d="M -6.571031 -20.218031 L 20.796156 4.418688 L -14.227281 15.797594 Z M -6.571031 -20.218031 " transform="matrix(1,0,0,-1,85.239,85.239)"/>
<g clip-path="url(#clip19)" clip-rule="nonzero">
<path style="fill:none;stroke-width:0.3985;stroke-linecap:butt;stroke-linejoin:miter;stroke:rgb(0%,0%,0%);stroke-opacity:1;stroke-miterlimit:10;" d="M -14.766344 -83.749281 L 79.913344 29.086656 L -65.14525 54.664781 Z M -14.766344 -83.749281 " transform="matrix(1,0,0,-1,85.239,85.239)"/>
</g>
<path style="fill:none;stroke-width:0.3985;stroke-linecap:butt;stroke-linejoin:miter;stroke:rgb(0%,0%,0%);stroke-opacity:1;stroke-miterlimit:10;" d="M -6.653063 -41.995375 L 39.694594 15.239 L -33.043688 26.758531 Z M -6.653063 -41.995375 " transform="matrix(1,0,0,-1,85.239,85.239)"/>
<path style="fill:none;stroke-width:0.3985;stroke-linecap:butt;stroke-linejoin:miter;stroke:rgb(0%,0%,0%);stroke-opacity:1;stroke-miterlimit:10;" d="M -2.95775 -21.053969 L 19.710219 7.965563 L -16.754625 13.090563 Z M -2.95775 -21.053969 " transform="matrix(1,0,0,-1,85.239,85.239)"/>
<g clip-path="url(#clip20)" clip-rule="nonzero">
<path style="fill:none;stroke-width:0.3985;stroke-linecap:butt;stroke-linejoin:miter;stroke:rgb(0%,0%,0%);stroke-opacity:1;stroke-miterlimit:10;" d="M -0.00071875 -85.04225 L 73.647719 42.52025 L -73.649156 42.52025 Z M -0.00071875 -85.04225 " transform="matrix(1,0,0,-1,85.239,85.239)"/>
</g>
<path style="fill:none;stroke-width:0.3985;stroke-linecap:butt;stroke-linejoin:miter;stroke:rgb(0%,0%,0%);stroke-opacity:1;stroke-miterlimit:10;" d="M 0.741469 -42.514906 L 36.4485 21.899156 L -37.188219 20.614 Z M 0.741469 -42.514906 " transform="matrix(1,0,0,-1,85.239,85.239)"/>
<path style="fill:none;stroke-width:0.3985;stroke-linecap:butt;stroke-linejoin:miter;stroke:rgb(0%,0%,0%);stroke-opacity:1;stroke-miterlimit:10;" d="M 0.741469 -21.245375 L 18.030531 11.266344 L -18.77025 9.981188 Z M 0.741469 -21.245375 " transform="matrix(1,0,0,-1,85.239,85.239)"/>
<g clip-path="url(#clip21)" clip-rule="nonzero">
<path style="fill:none;stroke-width:0.3985;stroke-linecap:butt;stroke-linejoin:miter;stroke:rgb(0%,0%,0%);stroke-opacity:1;stroke-miterlimit:10;" d="M 14.764906 -83.749281 L 65.147719 54.664781 L -79.910875 29.086656 Z M 14.764906 -83.749281 " transform="matrix(1,0,0,-1,85.239,85.239)"/>
</g>
<path style="fill:none;stroke-width:0.3985;stroke-linecap:butt;stroke-linejoin:miter;stroke:rgb(0%,0%,0%);stroke-opacity:1;stroke-miterlimit:10;" d="M 8.112562 -41.737562 L 32.089125 27.89525 L -40.203844 13.844469 Z M 8.112562 -41.737562 " transform="matrix(1,0,0,-1,85.239,85.239)"/>
<path style="fill:none;stroke-width:0.3985;stroke-linecap:butt;stroke-linejoin:miter;stroke:rgb(0%,0%,0%);stroke-opacity:1;stroke-miterlimit:10;" d="M 4.421156 -20.796156 L 15.800062 14.227281 L -20.219469 6.571031 Z M 4.421156 -20.796156 " transform="matrix(1,0,0,-1,85.239,85.239)"/>
<g clip-path="url(#clip22)" clip-rule="nonzero">
<path style="fill:none;stroke-width:0.3985;stroke-linecap:butt;stroke-linejoin:miter;stroke:rgb(0%,0%,0%);stroke-opacity:1;stroke-miterlimit:10;" d="M 29.085219 -79.913344 L 54.663344 65.14525 L -83.750719 14.766344 Z M 29.085219 -79.913344 " transform="matrix(1,0,0,-1,85.239,85.239)"/>
</g>
<path style="fill:none;stroke-width:0.3985;stroke-linecap:butt;stroke-linejoin:miter;stroke:rgb(0%,0%,0%);stroke-opacity:1;stroke-miterlimit:10;" d="M 15.237562 -39.694594 L 26.757094 33.043688 L -41.996813 6.653063 Z M 15.237562 -39.694594 " transform="matrix(1,0,0,-1,85.239,85.239)"/>
<path style="fill:none;stroke-width:0.3985;stroke-linecap:butt;stroke-linejoin:miter;stroke:rgb(0%,0%,0%);stroke-opacity:1;stroke-miterlimit:10;" d="M 7.964125 -19.710219 L 13.089125 16.754625 L -21.0515 2.95775 Z M 7.964125 -19.710219 " transform="matrix(1,0,0,-1,85.239,85.239)"/>
<path style="fill:none;stroke-width:0.3985;stroke-linecap:butt;stroke-linejoin:miter;stroke:rgb(0%,0%,0%);stroke-opacity:1;stroke-miterlimit:10;" d="M 42.518812 -73.647719 L 42.518812 73.649156 L -85.039781 0.00071875 Z M 42.518812 -73.647719 " transform="matrix(1,0,0,-1,85.239,85.239)"/>
<path style="fill:none;stroke-width:0.3985;stroke-linecap:butt;stroke-linejoin:miter;stroke:rgb(0%,0%,0%);stroke-opacity:1;stroke-miterlimit:10;" d="M 21.901625 -36.4485 L 20.612562 37.188219 L -42.512438 -0.741469 Z M 21.901625 -36.4485 " transform="matrix(1,0,0,-1,85.239,85.239)"/>
<path style="fill:none;stroke-width:0.3985;stroke-linecap:butt;stroke-linejoin:miter;stroke:rgb(0%,0%,0%);stroke-opacity:1;stroke-miterlimit:10;" d="M 11.264906 -18.030531 L 9.97975 18.77025 L -21.246813 -0.741469 Z M 11.264906 -18.030531 " transform="matrix(1,0,0,-1,85.239,85.239)"/>
<path style="fill:none;stroke-width:0.3985;stroke-linecap:butt;stroke-linejoin:miter;stroke:rgb(0%,0%,0%);stroke-opacity:1;stroke-miterlimit:10;" d="M 54.663344 -65.143812 L 29.085219 79.910875 L -83.746813 -14.768812 Z M 54.663344 -65.143812 " transform="matrix(1,0,0,-1,85.239,85.239)"/>
<path style="fill:none;stroke-width:0.3985;stroke-linecap:butt;stroke-linejoin:miter;stroke:rgb(0%,0%,0%);stroke-opacity:1;stroke-miterlimit:10;" d="M 27.897719 -32.089125 L 13.843031 40.203844 L -41.739 -8.112562 Z M 27.897719 -32.089125 " transform="matrix(1,0,0,-1,85.239,85.239)"/>
<path style="fill:none;stroke-width:0.3985;stroke-linecap:butt;stroke-linejoin:miter;stroke:rgb(0%,0%,0%);stroke-opacity:1;stroke-miterlimit:10;" d="M 14.225844 -15.800062 L 6.569594 20.219469 L -20.793688 -4.421156 Z M 14.225844 -15.800062 " transform="matrix(1,0,0,-1,85.239,85.239)"/>
<path style="fill:none;stroke-width:0.3985;stroke-linecap:butt;stroke-linejoin:miter;stroke:rgb(0%,0%,0%);stroke-opacity:1;stroke-miterlimit:10;" d="M 65.143812 -54.663344 L 14.768812 83.746813 L -79.910875 -29.085219 Z M 65.143812 -54.663344 " transform="matrix(1,0,0,-1,85.239,85.239)"/>
<path style="fill:none;stroke-width:0.3985;stroke-linecap:butt;stroke-linejoin:miter;stroke:rgb(0%,0%,0%);stroke-opacity:1;stroke-miterlimit:10;" d="M 33.046156 -26.757094 L 6.651625 41.996813 L -39.696031 -15.237562 Z M 33.046156 -26.757094 " transform="matrix(1,0,0,-1,85.239,85.239)"/>
<path style="fill:none;stroke-width:0.3985;stroke-linecap:butt;stroke-linejoin:miter;stroke:rgb(0%,0%,0%);stroke-opacity:1;stroke-miterlimit:10;" d="M 16.753187 -13.089125 L 2.960219 21.0515 L -19.711656 -7.964125 Z M 16.753187 -13.089125 " transform="matrix(1,0,0,-1,85.239,85.239)"/>
<path style="fill:none;stroke-width:0.3985;stroke-linecap:butt;stroke-linejoin:miter;stroke:rgb(0%,0%,0%);stroke-opacity:1;stroke-miterlimit:10;" d="M 73.647719 -42.518812 L -0.00071875 85.039781 L -73.649156 -42.518812 Z M 73.647719 -42.518812 " transform="matrix(1,0,0,-1,85.239,85.239)"/>
<path style="fill:none;stroke-width:0.3985;stroke-linecap:butt;stroke-linejoin:miter;stroke:rgb(0%,0%,0%);stroke-opacity:1;stroke-miterlimit:10;" d="M 37.190687 -20.616469 L -0.742906 42.512438 L -36.446031 -21.897719 Z M 37.190687 -20.616469 " transform="matrix(1,0,0,-1,85.239,85.239)"/>
<path style="fill:none;stroke-width:0.3985;stroke-linecap:butt;stroke-linejoin:miter;stroke:rgb(0%,0%,0%);stroke-opacity:1;stroke-miterlimit:10;" d="M 18.772719 -9.97975 L -0.742906 21.246813 L -18.028063 -11.264906 Z M 18.772719 -9.97975 " transform="matrix(1,0,0,-1,85.239,85.239)"/>
<g clip-path="url(#clip23)" clip-rule="nonzero">
<path style="fill:none;stroke-width:0.3985;stroke-linecap:butt;stroke-linejoin:miter;stroke:rgb(0%,0%,0%);stroke-opacity:1;stroke-miterlimit:10;" d="M 79.913344 -29.085219 L -14.766344 83.750719 L -65.14525 -54.663344 Z M 79.913344 -29.085219 " transform="matrix(1,0,0,-1,85.239,85.239)"/>
</g>
<path style="fill:none;stroke-width:0.3985;stroke-linecap:butt;stroke-linejoin:miter;stroke:rgb(0%,0%,0%);stroke-opacity:1;stroke-miterlimit:10;" d="M 40.202406 -13.843031 L -8.114 41.739 L -32.090563 -27.897719 Z M 40.202406 -13.843031 " transform="matrix(1,0,0,-1,85.239,85.239)"/>
<path style="fill:none;stroke-width:0.3985;stroke-linecap:butt;stroke-linejoin:miter;stroke:rgb(0%,0%,0%);stroke-opacity:1;stroke-miterlimit:10;" d="M 20.218031 -6.569594 L -4.418688 20.797594 L -15.797594 -14.225844 Z M 20.218031 -6.569594 " transform="matrix(1,0,0,-1,85.239,85.239)"/>
<g clip-path="url(#clip24)" clip-rule="nonzero">
<path style="fill:none;stroke-width:0.3985;stroke-linecap:butt;stroke-linejoin:miter;stroke:rgb(0%,0%,0%);stroke-opacity:1;stroke-miterlimit:10;" d="M 83.749281 -14.764906 L -29.086656 79.910875 L -54.664781 -65.147719 Z M 83.749281 -14.764906 " transform="matrix(1,0,0,-1,85.239,85.239)"/>
</g>
<path style="fill:none;stroke-width:0.3985;stroke-linecap:butt;stroke-linejoin:miter;stroke:rgb(0%,0%,0%);stroke-opacity:1;stroke-miterlimit:10;" d="M 41.995375 -6.651625 L -15.239 39.696031 L -26.758531 -33.046156 Z M 41.995375 -6.651625 " transform="matrix(1,0,0,-1,85.239,85.239)"/>
<path style="fill:none;stroke-width:0.3985;stroke-linecap:butt;stroke-linejoin:miter;stroke:rgb(0%,0%,0%);stroke-opacity:1;stroke-miterlimit:10;" d="M 21.053969 -2.960219 L -7.965563 19.711656 L -13.090563 -16.753187 Z M 21.053969 -2.960219 " transform="matrix(1,0,0,-1,85.239,85.239)"/>
<g clip-path="url(#clip25)" clip-rule="nonzero">
<path style="fill:none;stroke-width:0.3985;stroke-linecap:butt;stroke-linejoin:miter;stroke:rgb(0%,0%,0%);stroke-opacity:1;stroke-miterlimit:10;" d="M 85.04225 0.00071875 C 85.04225 46.965563 46.968031 85.039781 -0.00071875 85.039781 C -46.965563 85.039781 -85.039781 46.965563 -85.039781 0.00071875 C -85.039781 -46.968031 -46.965563 -85.04225 -0.00071875 -85.04225 C 46.968031 -85.04225 85.04225 -46.968031 85.04225 0.00071875 Z M 84.190687 0.00071875 C 84.190687 46.496813 46.499281 84.188219 -0.00071875 84.188219 C -46.496813 84.188219 -84.188219 46.496813 -84.188219 0.00071875 C -84.188219 -46.499281 -46.496813 -84.190687 -0.00071875 -84.190687 C 46.499281 -84.190687 84.190687 -46.499281 84.190687 0.00071875 Z M 82.206312 0.00071875 C 82.206312 45.403063 45.401625 82.203844 -0.00071875 82.203844 C -45.403063 82.203844 -82.203844 45.403063 -82.203844 0.00071875 C -82.203844 -45.401625 -45.403063 -82.206312 -0.00071875 -82.206312 C 45.401625 -82.206312 82.206312 -45.401625 82.206312 0.00071875 Z M 82.206312 0.00071875 " transform="matrix(1,0,0,-1,85.239,85.239)"/>
</g>
</g>
</svg>
